<?xml version="1.0" encoding="UTF-8" standalone="no"?>
<!-- Created with Inkscape (http://www.inkscape.org/) -->

<svg
   xmlns:dc="http://purl.org/dc/elements/1.1/"
   xmlns:cc="http://creativecommons.org/ns#"
   xmlns:rdf="http://www.w3.org/1999/02/22-rdf-syntax-ns#"
   xmlns:svg="http://www.w3.org/2000/svg"
   xmlns="http://www.w3.org/2000/svg"
   xmlns:sodipodi="http://sodipodi.sourceforge.net/DTD/sodipodi-0.dtd"
   xmlns:inkscape="http://www.inkscape.org/namespaces/inkscape"
   width="744.09448819"
   height="1052.3622047"
   id="svg2"
   version="1.1"
   inkscape:version="0.48.2 r9819"
   sodipodi:docname="blobs.svg">
  <defs
     id="defs4" />
  <sodipodi:namedview
     id="base"
     pagecolor="#ffffff"
     bordercolor="#666666"
     borderopacity="1.0"
     inkscape:pageopacity="0.0"
     inkscape:pageshadow="2"
     inkscape:zoom="0.35"
     inkscape:cx="375"
     inkscape:cy="291.42857"
     inkscape:document-units="px"
     inkscape:current-layer="layer1"
     showgrid="false"
     inkscape:window-width="844"
     inkscape:window-height="788"
     inkscape:window-x="177"
     inkscape:window-y="24"
     inkscape:window-maximized="0" />
  <metadata
     id="metadata7">
    <rdf:RDF>
      <cc:Work
         rdf:about="">
        <dc:format>image/svg+xml</dc:format>
        <dc:type
           rdf:resource="http://purl.org/dc/dcmitype/StillImage" />
        <dc:title></dc:title>
      </cc:Work>
    </rdf:RDF>
  </metadata>
  <g
     inkscape:label="Layer 1"
     inkscape:groupmode="layer"
     id="layer1">
    <path
       style="fill:#00ffff;stroke:#000000;stroke-width:1px;stroke-linecap:butt;stroke-linejoin:miter;stroke-opacity:1"
       d="m 145.71428,129.50504 c -3.80952,0.95238 -10.47619,6.66666 -11.42857,2.85714 -0.95238,-3.80953 13.18468,-6.36935 11.42857,-2.85714 -2.4835,4.96701 -10.01956,5.0163 -14.28571,8.57142 -1.636,1.36333 -1.67586,3.94236 -2.85714,5.71429 -8.03613,12.05419 4.90336,-15.52101 -8.57143,11.42857 -1.34687,2.69374 -1.30764,5.98892 -2.85714,8.57143 -2.77184,4.61973 -9.01922,6.60986 -11.42858,11.42857 -0.85183,1.70367 0.46198,3.8664 0,5.71429 -0.5165,2.066 -2.34064,3.64828 -2.85714,5.71428 -0.46197,1.84789 0.46197,3.8664 0,5.71429 -0.5165,2.066 -2.2721,3.66663 -2.85714,5.71428 -2.173439,7.60704 -2.111789,15.65216 -5.714289,22.85715 -1.53567,3.07133 -4.36162,5.41521 -5.71428,8.57143 -1.75981,4.10622 -4.90069,22.45989 -5.71429,25.71428 -4.30876,17.23504 -3.09359,-0.49264 -5.71428,25.71429 -0.75813,7.58123 0.84138,15.28469 0,22.85714 -0.53628,4.82651 -2.45386,9.44628 -2.85715,14.28571 -0.55363,6.64364 0,13.33334 0,20 0,4.76191 0,9.52381 0,14.28572 0,9.69232 -1.65501,19.54711 2.85715,28.57143 3.60425,7.2085 6.11358,8.97073 11.42857,14.28571 5.71428,5.71429 11.00713,11.88367 17.142849,17.14286 6.61699,5.6717 12.31989,7.16184 20,11.42857 4.85445,2.69691 9.01741,6.81532 14.28572,8.57143 3.61403,1.20468 7.70976,-0.8264 11.42857,0 5.0066,1.11258 9.3377,4.36483 14.28571,5.71428 22.57138,6.15583 10.74854,0.78914 31.42858,2.85715 4.8321,0.48321 9.4592,2.32086 14.28571,2.85714 3.78622,0.42069 7.61905,0 11.42857,0 3.80953,0 7.61905,0 11.42857,0 3.80953,0 7.61905,0 11.42857,0 3.80953,0 7.63796,0.37906 11.42858,0 5.76435,-0.57644 11.4877,-1.60044 17.14285,-2.85714 13.83124,-3.07361 4.98845,-3.08882 20,-11.42857 4.48332,-2.49074 9.83273,-3.16973 14.28572,-5.71429 6.65429,-3.80245 4.95694,-6.00684 8.57143,-11.42857 0.7471,-1.12067 2.2548,-1.65247 2.85714,-2.85714 0.42592,-0.85184 -0.30117,-1.95364 0,-2.85715 1.34687,-4.04061 4.68128,-7.29656 5.71428,-11.42857 0.46198,-1.84789 -0.31314,-3.83544 0,-5.71428 9.27582,-37.10325 -1.30892,9.16245 2.85715,-20 0.55533,-3.88731 2.37008,-7.53213 2.85714,-11.42858 1.05495,-8.43956 -1.05495,-17.27472 0,-25.71428 0.37355,-2.98844 2.2665,-5.61822 2.85714,-8.57143 0.61882,-3.09409 0,-16.94579 0,-20 0,-1.90476 -0.46197,-3.8664 0,-5.71429 4.66329,-18.65313 1.53421,10.79479 5.71429,-14.28571 1.08108,-6.48649 -1.08108,-13.51351 0,-20 0.3501,-2.10061 2.43949,-3.62605 2.85714,-5.71429 0.75719,-3.78596 0,-9.99495 0,-14.28571 0,-4.76191 0,-9.52381 0,-14.28571 0,-1.90477 0.31314,-3.83544 0,-5.71429 -0.64556,-3.87334 -1.61539,-7.70331 -2.85714,-11.42857 -3.25661,-9.76984 -2.36981,-2.12615 -8.57143,-11.42857 -0.52829,-0.79243 0.30117,-1.95364 0,-2.85715 -0.99135,-2.97404 -2.91228,-6.70342 -5.71429,-8.57142 -3.54385,-2.36257 -8.02123,-3.15878 -11.42857,-5.71429 -5.33333,-4 -8.95238,-10.28571 -14.28571,-14.28571 -3.40734,-2.55551 -7.88472,-3.35172 -11.42857,-5.71429 -1.12067,-0.74711 -1.57939,-2.43123 -2.85715,-2.85714 -0.0129,-0.004 -8.5687,0.003 -8.57142,0 -6.63222,-13.26444 1.88707,-0.48504 -8.57143,-5.71429 -0.85184,-0.42592 0.67343,-2.18371 0,-2.85714 -0.84538,-0.84538 -9.65882,0.88487 -11.42857,0 -1.20468,-0.60234 -1.57939,-2.43123 -2.85715,-2.85714 -13.00652,0 -0.1634,1.34687 -8.57143,-2.85715 -0.86867,-0.43433 -9.45565,0 -11.42857,0 -11.42857,0 -22.85714,0 -34.28571,0 -2.0426,0 -15.68032,0.48752 -17.14286,0 -8.91806,-2.97268 0.95238,-1.90476 -2.85714,-5.71428 -0.67344,-0.67344 -2.00531,0.42591 -2.85714,0 -2.40936,-1.20468 -3.30494,-4.50961 -5.71429,-5.71429 -0.85184,-0.42592 -2.18371,0.67344 -2.85714,0 -1.50585,-1.50585 -2.18371,-3.69398 -2.85715,-5.71428 -0.30117,-0.90351 0.67344,-2.18371 0,-2.85715 -0.67343,-0.67343 -1.90476,0 -2.85714,0 -0.95238,0 -2.85714,0.95238 -2.85714,0 0,-0.95238 3.80952,0 2.85714,0 -9.64105,0 -3.86639,-0.46197 -17.14286,2.85715 z"
       id="path2985"
       inkscape:connector-curvature="0"
       onmouseover="setAttribute('fill-opacity','1.0')"
       onmouseout="setAttribute('fill-opacity','0.5')"
       onclick="parent.blobClicked(&quot;blue&quot;)" />
    <path
       style="fill:#008000;stroke:#000000;stroke-width:1px;stroke-linecap:butt;stroke-linejoin:miter;stroke-opacity:1"
       d="m 334.28571,543.79075 c -14.28571,0 -28.57142,0 -42.85714,0 -3.80952,0 -7.76562,-1.04655 -11.42857,0 -3.30174,0.94336 -5.62692,3.94758 -8.57143,5.71429 -1.82611,1.09566 -3.88818,1.76148 -5.71428,2.85714 -2.94451,1.76671 -5.62692,3.94758 -8.57143,5.71429 -3.65222,2.19133 -8.02123,3.15878 -11.42857,5.71428 -7.38872,5.54154 -5.18082,6.78841 -11.42858,14.28572 -2.58673,3.10408 -5.98469,5.46734 -8.57142,8.57143 -2.19831,2.63796 -3.89435,5.65952 -5.71429,8.57143 -11.32852,18.12563 -6.39966,9.64489 -14.28571,28.57142 -12.16018,29.18442 -5.26795,10.08955 -14.28572,37.14286 -1.90476,5.71429 -4.533,11.23644 -5.71428,17.14286 -0.74711,3.73554 0.53874,7.65733 0,11.42857 -0.42592,2.98142 -2.26651,5.61822 -2.85715,8.57143 -0.74711,3.73554 0,7.61905 0,11.42857 0,1.87745 -0.53733,6.95943 0,8.57143 0.67344,2.0203 1.90476,3.80952 2.85715,5.71428 1.90476,3.80953 3.80952,7.61905 5.71428,11.42858 1.15999,2.31996 2.80563,7.11709 5.71429,8.57142 0.85183,0.42592 2.0053,-0.42591 2.85714,0 2.40935,1.20468 3.15878,4.86245 5.71429,5.71429 1.80701,0.60234 3.83544,-0.31314 5.71428,0 3.87334,0.64556 7.61905,1.90476 11.42857,2.85714 16.13979,4.03495 7.57806,2.08704 25.71429,5.71429 4.7619,0.95238 9.45921,2.32086 14.28571,2.85714 3.78623,0.42069 7.64847,-0.47251 11.42857,0 3.89645,0.48706 7.52583,2.42351 11.42858,2.85714 4.73278,0.52587 9.52381,0 14.28571,0 3.80952,0 7.61905,0 11.42857,0 20.95238,0 41.90476,0 62.85714,0 21.90477,0 43.80953,0 65.71429,0 10.47619,0 20.95238,0 31.42857,0 3.80953,0 7.64847,0.47252 11.42857,0 8.83406,-1.10425 17.80521,-4.61689 25.71429,-8.57142 1.90476,-0.95239 3.94236,-1.67586 5.71428,-2.85715 1.12067,-0.74711 2.25481,-1.65246 2.85715,-2.85714 0.53078,-1.06157 0,-17.5625 0,-20 0,-13.33333 0,-26.66667 0,-40 0,-22.28612 0.90351,5.42105 -2.85715,-17.14286 -0.46971,-2.81827 0.46972,-5.75316 0,-8.57143 -0.49511,-2.97071 -2.02976,-5.67561 -2.85714,-8.57142 -1.07876,-3.77569 -2.21158,-7.55524 -2.85714,-11.42858 -0.62628,-3.75769 0.92394,-7.73279 0,-11.42857 -2.0716,-8.28638 -2.22907,-3.34361 -5.71429,-8.57143 -1.18128,-1.77192 -1.35129,-4.20844 -2.85714,-5.71428 -1.50585,-1.50585 -3.88818,-1.76148 -5.71429,-2.85714 -2.9445,-1.76671 -5.71428,-3.80953 -8.57142,-5.71429 -2.85715,-1.90476 -5.71429,-3.80952 -8.57143,-5.71429 -2.85715,-1.90476 -5.5001,-4.17861 -8.57143,-5.71428 -5.38748,-2.69374 -11.55029,-3.47726 -17.14286,-5.71429 -5.7658,-2.30632 -4.93776,-2.08062 -8.57143,-5.71428 -0.95238,-0.95238 -1.65246,-2.25481 -2.85714,-2.85715 -0.85184,-0.42591 -2.00531,0.42592 -2.85714,0 -2.40936,-1.20467 -3.10098,-5.06095 -5.71429,-5.71428 -2.77183,-0.69296 -5.75316,0.46971 -8.57143,0 -2.97071,-0.49512 -5.61822,-2.2665 -8.57143,-2.85714 -3.73554,-0.74711 -7.81454,1.20467 -11.42857,0 -1.27775,-0.42592 -1.65246,-2.25481 -2.85714,-2.85715 -0.85184,-0.42592 -2.18371,0.67344 -2.85714,0 -0.67344,-0.67343 0.67343,-2.18371 0,-2.85714 -0.67344,-0.67344 -2.00531,0.42592 -2.85715,0 -1.20467,-0.60234 -1.65246,-2.2548 -2.85714,-2.85714 -1.70367,-0.85184 -3.86639,0.46197 -5.71428,0 -28.86747,-7.21687 2.06339,1.03169 -11.42858,-5.71429 -0.85183,-0.42592 -2.0053,0.42592 -2.85714,0 -1.20468,-0.60234 -1.65246,-2.2548 -2.85714,-2.85714 -1.70367,-0.85184 -4.01062,0.85183 -5.71429,0 -2.18254,-1.09127 -6.63671,-7.92653 -8.57143,-8.57143 -1.80701,-0.60234 -4.01061,0.85184 -5.71428,0 -0.85184,-0.42592 0,-1.90476 0,-2.85714 -4.76191,-0.95238 -9.52381,-1.90477 -14.28572,-2.85715 z"
       id="path2987"
       inkscape:connector-curvature="0"
       onclick="parent.blobClicked(&quot;green&quot;)" />
    <path
       style="fill:#ff0000;stroke:#000000;stroke-width:1px;stroke-linecap:butt;stroke-linejoin:miter;stroke-opacity:1"
       d="m 457.14286,169.50504 c 0,16.19048 0,32.38095 0,48.57143 0,8.48177 1.15493,17.69014 -2.85715,25.71428 -2.12958,4.25918 -6.20886,7.29408 -8.57142,11.42858 -1.49422,2.61488 -1.10664,6.12071 -2.85715,8.57142 -3.13141,4.38398 -8.33905,7.01498 -11.42857,11.42858 -3.66372,5.23388 -5.71428,11.42857 -8.57143,17.14285 -2.85714,5.71429 -5.71428,11.42857 -8.57143,17.14286 -1.90476,3.80952 -3.80952,7.61905 -5.71428,11.42857 -3.80953,5.71429 -8.13995,11.11372 -11.42857,17.14286 -4.68487,8.58892 -7.92869,22.67886 -11.42857,31.42857 -1.58182,3.95455 -3.95183,7.55116 -5.71429,11.42857 -3.00136,6.603 -6.27779,13.11909 -8.57143,20 -1.53567,4.60701 -1.80368,9.54515 -2.85714,14.28572 -0.85184,3.83325 -1.77838,7.65289 -2.85714,11.42857 -0.82738,2.89581 -1.51028,5.87769 -2.85715,8.57143 -1.02163,2.04326 -6.09089,4.09741 -2.85714,5.71428 0.46994,0.23497 10.32194,-0.22132 11.42857,0 2.95321,0.59064 5.77514,1.73863 8.57143,2.85714 1.97727,0.79091 3.62605,2.4395 5.71429,2.85715 2.80165,0.56033 5.76977,-0.56033 8.57142,0 2.08824,0.41764 3.73702,2.06623 5.71429,2.85714 28.76078,11.50431 -6.06627,-2.23085 14.28571,2.85714 2.06601,0.5165 3.62606,2.4395 5.71429,2.85715 3.01711,0.60342 15.86802,0 20,0 6.66667,0 13.33333,0 20,0 2.85714,0 5.75316,0.46971 8.57143,0 9.24426,-1.54072 9.01268,-3.92562 17.14286,-8.57143 3.698,-2.11315 7.53648,-3.98447 11.42857,-5.71429 15.89355,-7.0638 11.64728,-3.61357 25.71428,-11.42857 9.7089,-5.39383 18.82102,-11.82445 28.57143,-17.14286 5.60867,-3.05927 11.53419,-5.51215 17.14286,-8.57143 4.87521,-2.6592 9.21105,-6.31602 14.28571,-8.57142 3.58833,-1.59482 7.81931,-1.31032 11.42857,-2.85715 3.15622,-1.35266 5.62692,-3.94758 8.57143,-5.71428 1.82611,-1.09567 3.94236,-1.67586 5.71429,-2.85715 1.21104,-0.80735 7.98036,-7.38928 8.57143,-8.57142 1.11578,-2.23157 3.21779,-11.78922 5.71428,-14.28572 2.42811,-2.4281 6.51112,-2.9672 8.57143,-5.71428 1.14286,-1.52381 -0.46197,-3.8664 0,-5.71429 0.5165,-2.066 1.90476,-3.80952 2.85714,-5.71429 0.95239,-1.90476 1.67586,-3.94236 2.85715,-5.71428 0.74711,-1.12067 2.2548,-1.65247 2.85714,-2.85714 0.32019,-0.64038 0,-10.74963 0,-11.42858 0,-8.57142 0,-17.14285 0,-25.71428 0,-2.85714 -0.46971,-5.75316 0,-8.57143 0.49512,-2.97072 2.43123,-5.59 2.85714,-8.57143 0.53875,-3.77123 0,-7.61905 0,-11.42857 0,-9.52381 0,-19.04762 0,-28.57143 0,-6.66667 0,-13.33333 0,-20 0,-1.90476 0.46198,-3.86639 0,-5.71428 -0.5165,-2.06601 -2.06623,-3.73702 -2.85714,-5.71429 -1.11851,-2.79629 -1.18656,-6.06555 -2.85714,-8.57143 -0.52829,-0.79243 -2.09524,0.57143 -2.85715,0 -18.9098,-14.18235 1.513,-3.62522 -17.14285,-14.28571 -3.698,-2.11315 -7.61905,-3.80953 -11.42857,-5.71429 -3.80953,-1.90476 -7.51377,-4.03651 -11.42858,-5.71428 -5.53636,-2.37273 -11.75537,-3.02055 -17.14285,-5.71429 -13.07602,-6.53801 12.12404,1.18421 -8.57143,-5.71429 -0.90351,-0.30117 -1.95364,0.30117 -2.85714,0 -2.02031,-0.67343 -3.64829,-2.34064 -5.71429,-2.85714 -1.84789,-0.46197 -3.84651,0.37356 -5.71429,0 -5.90641,-1.18128 -11.20142,-4.72405 -17.14285,-5.71428 -2.81827,-0.46972 -5.76977,0.56033 -8.57143,0 -2.08823,-0.41765 -3.62605,-2.4395 -5.71429,-2.85715 -3.73554,-0.74711 -7.61904,0 -11.42857,0 -5.71428,0 -11.42857,0 -17.14286,0 -0.95238,0 -2.1837,-0.67343 -2.85714,0 -1.50585,1.50585 -1.67586,3.94236 -2.85714,5.71429 -0.52331,0.78496 -7.96929,8.37071 -8.57143,8.57143 -2.85714,0.95238 -5.71429,-0.47619 -8.57143,0 -4.79013,0.79835 -9.52381,1.90476 -14.28571,2.85714 z"
       id="path2989"
       inkscape:connector-curvature="0"
       onclick="parent.blobClicked(&quot;red&quot;)" />
  </g>
</svg>
